
<svg xmlns="http://www.w3.org/2000/svg" version="1.1" width="660px" height="660px" style="shape-rendering:geometricPrecision; text-rendering:geometricPrecision; image-rendering:optimizeQuality; fill-rule:evenodd; clip-rule:evenodd" xmlns:xlink="http://www.w3.org/1999/xlink">
<g><path style="opacity:0.998" fill="#f6f7f1" d="M 303.5,-0.5 C 320.833,-0.5 338.167,-0.5 355.5,-0.5C 461.164,10.8948 544.331,59.8948 605,146.5C 636.034,194.771 654.201,247.438 659.5,304.5C 659.5,321.167 659.5,337.833 659.5,354.5C 649.231,455.899 603.564,537.066 522.5,598C 471.996,633.447 415.996,653.947 354.5,659.5C 337.833,659.5 321.167,659.5 304.5,659.5C 193.258,647.656 107.425,594.989 47,501.5C 20.0556,456.368 4.22231,407.701 -0.5,355.5C -0.5,338.167 -0.5,320.833 -0.5,303.5C 11.638,192.668 64.3047,107.168 157.5,47C 202.632,20.0556 251.299,4.22231 303.5,-0.5 Z"/></g>
<g><path style="opacity:1" fill="#0d1e5b" d="M 331.5,98.5 C 361.392,154.614 391.059,210.947 420.5,267.5C 420.167,267.833 419.833,268.167 419.5,268.5C 364.833,236.5 310.167,204.5 255.5,172.5C 280.55,147.449 305.883,122.782 331.5,98.5 Z"/></g>
<g><path style="opacity:1" fill="#0f205c" d="M 321.5,215.5 C 320.081,216.451 318.415,216.784 316.5,216.5C 292.839,215.089 269.172,213.755 245.5,212.5C 247.904,200.08 250.737,187.747 254,175.5C 276.445,188.971 298.945,202.304 321.5,215.5 Z"/></g>
<g><path style="opacity:1" fill="#0f205c" d="M 421.5,186.5 C 422.5,186.5 423.5,186.5 424.5,186.5C 424.667,213.502 424.5,240.502 424,267.5C 412.55,244.099 400.717,220.932 388.5,198C 399.527,194.047 410.527,190.214 421.5,186.5 Z"/></g>
<g><path style="opacity:1" fill="#0d1f5c" d="M 427.5,186.5 C 461.948,196.373 496.282,206.539 530.5,217C 496.458,270.918 462.292,324.751 428,378.5C 427.5,314.501 427.333,250.501 427.5,186.5 Z"/></g>
<g><path style="opacity:1" fill="#0c1e5b" d="M 317.5,219.5 C 319.5,220.167 321.5,220.833 323.5,221.5C 268.24,252.244 213.073,283.244 158,314.5C 149.299,279.962 141.132,245.295 133.5,210.5C 194.828,213.595 256.162,216.595 317.5,219.5 Z"/></g>
<g><path style="opacity:1" fill="#98a0b5" d="M 321.5,215.5 C 322.473,215.987 323.473,216.487 324.5,217C 321.633,217.801 318.966,217.634 316.5,216.5C 318.415,216.784 320.081,216.451 321.5,215.5 Z"/></g>
<g><path style="opacity:1" fill="#828ca7" d="M 317.5,219.5 C 320.187,219.336 322.854,219.503 325.5,220C 324.956,220.717 324.289,221.217 323.5,221.5C 321.5,220.833 319.5,220.167 317.5,219.5 Z"/></g>
<g><path style="opacity:1" fill="#0f205c" d="M 227.5,278.5 C 229.646,278.696 229.812,279.696 228,281.5C 214.5,301.667 201,321.833 187.5,342C 186.833,342.667 186.167,342.667 185.5,342C 176.833,334 168.167,326 159.5,318C 182.393,305.059 205.06,291.892 227.5,278.5 Z"/></g>
<g><path style="opacity:1" fill="#0c1e5b" d="M 231.5,281.5 C 232.495,294.323 232.829,307.323 232.5,320.5C 231.714,357.495 231.381,394.495 231.5,431.5C 230.833,444.833 230.167,458.167 229.5,471.5C 195.587,462.028 161.921,451.861 128.5,441C 162.968,387.89 197.302,334.723 231.5,281.5 Z"/></g>
<g><path style="opacity:1" fill="#c4c9d1" d="M 232.5,320.5 C 232.829,307.323 232.495,294.323 231.5,281.5C 231.987,280.527 232.487,279.527 233,278.5C 233.827,292.673 233.661,306.673 232.5,320.5 Z"/></g>
<g><path style="opacity:1" fill="#10205c" d="M 473.5,315.5 C 482.666,323.83 491.999,331.997 501.5,340C 478.584,353.374 455.751,366.874 433,380.5C 445.755,358.534 459.255,336.867 473.5,315.5 Z"/></g>
<g><path style="opacity:1" fill="#0d1f5b" d="M 344.5,440.5 C 342.5,439.833 340.5,439.167 338.5,438.5C 393.224,406.719 448.057,375.052 503,343.5C 512.429,377.885 520.929,412.551 528.5,447.5C 467.171,445.06 405.838,442.727 344.5,440.5 Z"/></g>
<g><path style="opacity:1" fill="#0c1e5b" d="M 238.5,389.5 C 293.641,422.241 348.975,454.741 404.5,487C 378.951,511.718 352.951,535.884 326.5,559.5C 296.63,503.094 267.297,446.427 238.5,389.5 Z"/></g>
<g><path style="opacity:1" fill="#0d1f5c" d="M 236.5,393.5 C 248.048,415.928 259.048,438.595 269.5,461.5C 257.833,464.833 246.167,468.167 234.5,471.5C 234.5,458.5 234.5,445.5 234.5,432.5C 235.167,419.5 235.833,406.5 236.5,393.5 Z"/></g>
<g><path style="opacity:1" fill="#636e93" d="M 236.5,393.5 C 235.833,406.5 235.167,419.5 234.5,432.5C 234.333,418.496 234.5,404.496 235,390.5C 236.039,391.244 236.539,392.244 236.5,393.5 Z"/></g>
<g><path style="opacity:1" fill="#737e9d" d="M 338.5,438.5 C 340.5,439.167 342.5,439.833 344.5,440.5C 341.482,440.665 338.482,440.498 335.5,440C 336.527,439.487 337.527,438.987 338.5,438.5 Z"/></g>
<g><path style="opacity:1" fill="#10205d" d="M 336.5,443.5 C 362.027,443.726 387.693,445.059 413.5,447.5C 411.154,459.552 408.487,471.552 405.5,483.5C 382.609,469.891 359.609,456.557 336.5,443.5 Z"/></g>
<g><path style="opacity:1" fill="#6f799a" d="M 231.5,431.5 C 231.833,445.183 231.499,458.85 230.5,472.5C 229.893,472.376 229.56,472.043 229.5,471.5C 230.167,458.167 230.833,444.833 231.5,431.5 Z"/></g>
</svg>
